<svg width="24" height="24" viewBox="0 0 24 24" fill="none" xmlns="http://www.w3.org/2000/svg">
<path d="M20.14 4H10.37C9.62995 4.00441 8.91764 4.28221 8.37 4.78L8.27 4.89L2.27 12.37C2.10977 12.5692 2.03189 12.8221 2.05234 13.0769C2.0728 13.3317 2.19005 13.569 2.38 13.74L8.38 19.22C8.92764 19.7178 9.63995 19.9956 10.38 20H20.15C20.6363 20.0027 21.1039 19.8127 21.4505 19.4717C21.7972 19.1307 21.9947 18.6663 22 18.18V5.82C21.9974 5.57837 21.9472 5.33961 21.8523 5.11737C21.7574 4.89513 21.6197 4.69376 21.447 4.52475C21.2742 4.35575 21.0699 4.22242 20.8457 4.13238C20.6214 4.04234 20.3816 3.99736 20.14 4V4ZM20 18H10.37C10.1222 17.9994 9.8834 17.9067 9.7 17.74L4.37 12.89L9.75 6.22C9.92594 6.07884 10.1444 6.00131 10.37 6H20V18Z" fill="white"/>
<path d="M11.29 14.71C11.383 14.8037 11.4936 14.8781 11.6154 14.9289C11.7373 14.9797 11.868 15.0058 12 15.0058C12.132 15.0058 12.2627 14.9797 12.3846 14.9289C12.5064 14.8781 12.617 14.8037 12.71 14.71L14 13.41L15.29 14.71C15.383 14.8037 15.4936 14.8781 15.6154 14.9289C15.7373 14.9797 15.868 15.0058 16 15.0058C16.132 15.0058 16.2627 14.9797 16.3846 14.9289C16.5064 14.8781 16.617 14.8037 16.71 14.71C16.8037 14.617 16.8781 14.5064 16.9289 14.3846C16.9797 14.2627 17.0058 14.132 17.0058 14C17.0058 13.868 16.9797 13.7373 16.9289 13.6154C16.8781 13.4936 16.8037 13.383 16.71 13.29L15.41 12L16.71 10.71C16.8983 10.5217 17.0041 10.2663 17.0041 10C17.0041 9.7337 16.8983 9.47831 16.71 9.29C16.5217 9.1017 16.2663 8.99591 16 8.99591C15.7337 8.99591 15.4783 9.1017 15.29 9.29L14 10.59L12.71 9.29C12.5217 9.1017 12.2663 8.99591 12 8.99591C11.7337 8.99591 11.4783 9.1017 11.29 9.29C11.1017 9.47831 10.9959 9.7337 10.9959 10C10.9959 10.2663 11.1017 10.5217 11.29 10.71L12.59 12L11.29 13.29C11.1963 13.383 11.1219 13.4936 11.0711 13.6154C11.0203 13.7373 10.9942 13.868 10.9942 14C10.9942 14.132 11.0203 14.2627 11.0711 14.3846C11.1219 14.5064 11.1963 14.617 11.29 14.71V14.71Z" fill="white"/>
</svg>
